<?xml version="1.0" standalone="no"?>
<!DOCTYPE svg PUBLIC "-//W3C//DTD SVG 20010904//EN"
 "http://www.w3.org/TR/2001/REC-SVG-20010904/DTD/svg10.dtd">
<svg version="1.0" xmlns="http://www.w3.org/2000/svg"
 width="640.000000pt" height="640.000000pt" viewBox="0 0 640.000000 640.000000"
 preserveAspectRatio="xMidYMid meet">

<g transform="translate(0.000000,640.000000) scale(0.100000,-0.100000)"
fill="#000000" stroke="none">
<path d="M3005 5286 c-287 -40 -547 -157 -770 -349 -105 -91 -181 -179 -266
-305 -112 -167 -190 -357 -225 -547 -25 -133 -25 -411 0 -540 44 -231 162
-489 300 -655 112 -135 303 -299 418 -360 45 -24 49 -24 132 -12 109 16 239
64 299 110 55 42 140 139 163 185 44 86 53 124 79 323 22 177 23 197 10 248
-30 114 -59 163 -127 209 -50 33 -132 37 -188 9 -111 -55 -107 -213 6 -264 56
-24 101 -18 137 17 48 48 37 122 -23 163 -44 30 -86 26 -113 -10 -20 -27 -20
-29 -4 -63 18 -38 37 -45 82 -30 14 4 12 2 -5 -9 -49 -30 -100 6 -100 70 0 34
5 47 26 63 85 67 214 -33 190 -146 -24 -108 -179 -135 -263 -46 -60 63 -66
146 -17 231 62 106 229 109 330 5 29 -31 74 -118 74 -145 0 -9 5 -20 11 -24 8
-5 10 52 6 212 -6 245 -23 345 -76 458 -135 281 -498 302 -623 36 -33 -69 -31
-179 4 -245 33 -63 70 -98 131 -125 181 -80 367 26 367 210 0 97 -48 165 -143
205 -154 64 -329 -108 -247 -243 55 -90 193 -107 241 -28 23 38 25 103 3 134
-9 13 -11 22 -4 22 18 0 42 -71 36 -108 -16 -102 -127 -153 -226 -102 -57 29
-84 72 -88 145 -16 243 324 312 441 90 30 -57 30 -182 1 -245 -27 -57 -73
-103 -132 -132 -72 -35 -187 -33 -267 5 -69 33 -106 65 -145 125 l-27 44 -26
-45 c-76 -128 -234 -177 -369 -113 -255 121 -184 504 92 500 64 -1 107 -20
145 -66 39 -46 55 -89 55 -148 0 -60 -17 -96 -63 -136 -80 -71 -161 -71 -232
0 -78 78 -61 186 36 226 66 28 150 -25 148 -93 -1 -33 -3 -30 -13 16 -21 95
-155 87 -196 -12 -16 -39 0 -87 40 -126 39 -37 122 -47 166 -19 101 64 118
173 42 260 -41 46 -77 64 -130 64 -77 0 -176 -70 -199 -139 -29 -88 -3 -178
70 -244 48 -43 107 -61 177 -54 65 7 101 25 153 78 45 47 66 99 81 209 14 102
26 137 69 193 40 54 151 133 207 149 l37 10 -34 31 c-123 114 -162 144 -229
176 -93 44 -160 48 -234 12 -176 -86 -122 -361 70 -361 41 0 88 22 127 58 103
97 2 281 -133 241 -59 -18 -90 -59 -90 -118 0 -67 33 -106 90 -106 69 0 111
63 86 130 -3 11 1 6 10 -11 41 -78 -47 -165 -131 -129 -54 23 -70 50 -70 122
0 62 2 66 37 98 90 83 224 44 263 -76 15 -43 16 -58 5 -93 -27 -92 -102 -146
-201 -146 -105 0 -195 83 -212 196 -10 61 16 137 64 189 54 58 108 78 197 73
86 -4 186 -51 285 -133 37 -30 67 -54 67 -53 0 2 -7 25 -15 52 -21 70 -19 191
4 243 69 151 241 214 386 140 61 -31 77 -47 109 -117 63 -136 0 -284 -136
-321 -57 -15 -140 4 -184 43 -148 130 -16 377 160 299 94 -41 103 -160 18
-218 -18 -12 -39 -20 -45 -18 -7 2 -24 6 -39 9 -16 4 -28 11 -28 17 0 6 6 6
19 -1 58 -31 131 17 131 87 0 120 -140 162 -219 65 -26 -31 -31 -45 -31 -90 0
-89 44 -146 124 -161 151 -28 262 120 200 267 -34 82 -98 124 -189 125 -157 2
-263 -128 -235 -284 17 -90 45 -157 82 -196 17 -18 73 -53 122 -78 50 -24 103
-55 117 -68 88 -79 148 -200 173 -348 l13 -74 7 50 c12 79 45 185 79 248 42
80 119 147 232 202 114 56 145 94 175 211 26 100 25 138 -4 199 -42 89 -114
136 -211 137 -73 1 -118 -17 -159 -62 -101 -112 -58 -295 79 -329 114 -29 208
41 210 156 0 55 -18 89 -68 127 -38 28 -110 26 -141 -3 -54 -51 -58 -132 -9
-171 27 -21 87 -27 98 -10 3 6 12 10 18 10 7 0 3 -7 -7 -15 -51 -39 -147 0
-161 65 -31 141 149 223 250 115 45 -47 58 -99 41 -164 -28 -110 -127 -166
-248 -140 -129 28 -195 197 -129 327 57 113 201 169 320 127 86 -30 155 -98
181 -180 18 -53 16 -169 -4 -225 -8 -24 -13 -46 -11 -48 2 -2 24 16 49 40 99
93 221 148 325 148 158 -1 278 -158 229 -301 -19 -57 -60 -107 -111 -135 -96
-52 -223 -17 -275 75 -76 135 55 303 195 250 126 -47 130 -223 5 -258 -69 -20
-148 56 -123 120 13 36 46 61 73 56 22 -4 22 -4 -3 -6 -61 -3 -84 -86 -35
-128 55 -47 109 -40 146 19 42 66 0 156 -82 178 -47 13 -77 6 -117 -28 -112
-94 -33 -272 120 -272 136 0 218 165 143 287 -94 151 -282 128 -479 -59 l-86
-81 73 -35 c83 -40 163 -115 196 -182 12 -25 28 -90 35 -145 16 -115 43 -176
98 -224 97 -84 234 -80 327 10 100 97 87 254 -27 329 -103 69 -216 44 -273
-60 -30 -54 -21 -140 18 -181 44 -47 80 -62 134 -57 55 6 92 30 114 76 20 41
20 56 1 96 -31 65 -121 88 -164 42 -13 -14 -27 -40 -31 -58 l-8 -33 -1 33 c-1
46 53 102 98 102 38 0 78 -19 107 -52 92 -101 -36 -266 -177 -228 -51 14 -115
71 -130 117 -26 79 11 193 78 241 111 79 280 26 341 -106 95 -209 -97 -434
-321 -377 -78 20 -133 58 -175 122 l-35 52 -27 -42 c-34 -54 -81 -94 -150
-126 -79 -37 -194 -37 -265 1 -91 48 -135 110 -149 211 -23 158 91 297 243
297 203 -1 307 -240 155 -356 -52 -40 -135 -45 -184 -12 -42 28 -64 70 -64
119 -1 37 20 89 35 89 4 0 1 -12 -7 -27 -38 -74 2 -162 82 -177 49 -10 91 4
135 43 34 30 42 44 46 82 7 65 -11 111 -61 157 -128 118 -346 14 -346 -164 0
-66 20 -114 72 -170 126 -136 381 -69 443 116 45 135 -26 298 -159 368 -44 23
-63 27 -136 27 -71 0 -94 -4 -140 -26 -31 -14 -73 -41 -93 -59 -52 -45 -112
-151 -137 -240 -26 -95 -50 -290 -49 -395 1 -78 15 -203 18 -157 2 38 48 125
83 159 99 94 239 99 313 11 74 -88 50 -228 -50 -285 -47 -27 -90 -29 -144 -7
-52 21 -87 83 -77 138 17 91 125 146 189 96 24 -19 28 -28 25 -68 -2 -35 -9
-49 -30 -65 -22 -16 -32 -18 -50 -10 -22 10 -22 10 5 10 39 1 61 25 61 68 0
71 -78 88 -138 31 -30 -28 -36 -40 -36 -75 0 -87 87 -134 172 -92 56 26 78 64
78 132 0 91 -64 149 -165 149 -61 0 -103 -19 -146 -67 -86 -95 -100 -204 -60
-473 17 -115 29 -160 56 -217 96 -205 272 -326 509 -349 60 -6 63 -5 136 42
600 381 851 1124 603 1779 -84 222 -192 384 -371 559 -188 184 -493 337 -760
382 -125 21 -338 26 -457 10z m-671 -815 c3 -4 -6 -6 -19 -3 -14 2 -25 6 -25
8 0 8 39 4 44 -5z"/>
<path d="M2115 2186 c-70 -19 -94 -29 -156 -69 -81 -52 -175 -158 -208 -232
-80 -182 -62 -395 48 -550 110 -155 267 -235 458 -235 129 0 220 30 327 109
57 43 47 22 167 344 l28 77 -264 0 -265 0 0 -70 0 -70 160 0 c110 0 160 -3
160 -11 0 -6 -18 -49 -40 -95 -37 -81 -41 -86 -93 -109 -142 -65 -318 -45
-440 51 -192 150 -209 443 -36 616 143 143 367 158 541 36 l58 -41 39 34 c49
43 56 57 35 80 -27 30 -138 99 -196 121 -67 26 -248 34 -323 14z"/>
<path d="M3085 2178 c-3 -7 -38 -105 -79 -218 -41 -113 -126 -348 -190 -523
-64 -175 -116 -320 -116 -323 0 -2 33 -4 73 -4 l73 0 23 68 c13 37 44 122 69
190 l46 122 145 0 146 0 49 -138 c26 -75 57 -161 68 -189 l20 -53 74 0 73 0
-30 83 c-17 45 -50 136 -74 202 -49 136 -112 311 -192 530 -31 83 -64 176 -76
208 -20 56 -20 57 -59 57 -22 0 -41 -5 -43 -12z m89 -416 c22 -59 42 -113 44
-119 3 -10 -18 -13 -87 -13 -50 0 -91 4 -91 9 0 5 16 53 35 107 20 55 38 105
40 112 10 27 22 7 59 -96z"/>
<path d="M3622 1653 l3 -538 68 -3 67 -3 0 541 0 540 -70 0 -70 0 2 -537z"/>
<path d="M4237 2183 c-6 -10 -70 -181 -151 -408 -110 -305 -235 -645 -241
-656 -5 -6 20 -9 71 -7 l78 3 22 60 c32 87 104 288 109 303 3 9 43 12 151 12
130 0 146 -2 151 -17 2 -10 33 -94 67 -188 l63 -170 76 -3 76 -3 -19 48 c-11
26 -35 91 -54 143 -66 180 -169 465 -212 585 -23 66 -57 162 -76 212 l-33 93
-37 0 c-20 0 -39 -3 -41 -7z m93 -442 l39 -111 -89 0 c-65 0 -90 3 -90 13 0 6
19 63 42 125 29 78 44 109 50 99 4 -8 26 -65 48 -126z"/>
</g>
</svg>
